<svg id="visual" viewBox="0 0 900 600" width="900" height="600" xmlns="http://www.w3.org/2000/svg" xmlns:xlink="http://www.w3.org/1999/xlink" version="1.1"><rect x="0" y="0" width="900" height="600" fill="#0a1a27"></rect><path d="M0 209L25 221.7C50 234.3 100 259.7 150 258.3C200 257 250 229 300 227.7C350 226.3 400 251.7 450 260.5C500 269.3 550 261.7 600 257.3C650 253 700 252 750 245.8C800 239.7 850 228.3 875 222.7L900 217L900 601L875 601C850 601 800 601 750 601C700 601 650 601 600 601C550 601 500 601 450 601C400 601 350 601 300 601C250 601 200 601 150 601C100 601 50 601 25 601L0 601Z" fill="#977a38"></path><path d="M0 284L25 284.3C50 284.7 100 285.3 150 290.3C200 295.3 250 304.7 300 308.2C350 311.7 400 309.3 450 311.5C500 313.7 550 320.3 600 311.5C650 302.7 700 278.3 750 271.7C800 265 850 276 875 281.5L900 287L900 601L875 601C850 601 800 601 750 601C700 601 650 601 600 601C550 601 500 601 450 601C400 601 350 601 300 601C250 601 200 601 150 601C100 601 50 601 25 601L0 601Z" fill="#a2823c"></path><path d="M0 333L25 342C50 351 100 369 150 374.5C200 380 250 373 300 354.7C350 336.3 400 306.7 450 302.5C500 298.3 550 319.7 600 335.5C650 351.3 700 361.7 750 363.8C800 366 850 360 875 357L900 354L900 601L875 601C850 601 800 601 750 601C700 601 650 601 600 601C550 601 500 601 450 601C400 601 350 601 300 601C250 601 200 601 150 601C100 601 50 601 25 601L0 601Z" fill="#ad8a3f"></path><path d="M0 324L25 328.7C50 333.3 100 342.7 150 347.3C200 352 250 352 300 356.5C350 361 400 370 450 377C500 384 550 389 600 384C650 379 700 364 750 363.8C800 363.7 850 378.3 875 385.7L900 393L900 601L875 601C850 601 800 601 750 601C700 601 650 601 600 601C550 601 500 601 450 601C400 601 350 601 300 601C250 601 200 601 150 601C100 601 50 601 25 601L0 601Z" fill="#b89343"></path><path d="M0 421L25 419.2C50 417.3 100 413.7 150 408.2C200 402.7 250 395.3 300 392.5C350 389.7 400 391.3 450 399.7C500 408 550 423 600 424.3C650 425.7 700 413.3 750 413.3C800 413.3 850 425.7 875 431.8L900 438L900 601L875 601C850 601 800 601 750 601C700 601 650 601 600 601C550 601 500 601 450 601C400 601 350 601 300 601C250 601 200 601 150 601C100 601 50 601 25 601L0 601Z" fill="#c39b47"></path><path d="M0 481L25 479.5C50 478 100 475 150 468.3C200 461.7 250 451.3 300 451.7C350 452 400 463 450 467C500 471 550 468 600 467.2C650 466.3 700 467.7 750 467.8C800 468 850 467 875 466.5L900 466L900 601L875 601C850 601 800 601 750 601C700 601 650 601 600 601C550 601 500 601 450 601C400 601 350 601 300 601C250 601 200 601 150 601C100 601 50 601 25 601L0 601Z" fill="#cfa44b"></path><path d="M0 459L25 466.3C50 473.7 100 488.3 150 494.7C200 501 250 499 300 496C350 493 400 489 450 481.3C500 473.7 550 462.3 600 458.8C650 455.3 700 459.7 750 459.5C800 459.3 850 454.7 875 452.3L900 450L900 601L875 601C850 601 800 601 750 601C700 601 650 601 600 601C550 601 500 601 450 601C400 601 350 601 300 601C250 601 200 601 150 601C100 601 50 601 25 601L0 601Z" fill="#daac4f"></path><path d="M0 520L25 522.2C50 524.3 100 528.7 150 525.7C200 522.7 250 512.3 300 511.5C350 510.7 400 519.3 450 521C500 522.7 550 517.3 600 510.3C650 503.3 700 494.7 750 497.3C800 500 850 514 875 521L900 528L900 601L875 601C850 601 800 601 750 601C700 601 650 601 600 601C550 601 500 601 450 601C400 601 350 601 300 601C250 601 200 601 150 601C100 601 50 601 25 601L0 601Z" fill="#e6b553"></path><path d="M0 575L25 567.5C50 560 100 545 150 544.2C200 543.3 250 556.7 300 556.5C350 556.3 400 542.7 450 542.2C500 541.7 550 554.3 600 559C650 563.7 700 560.3 750 557.2C800 554 850 551 875 549.5L900 548L900 601L875 601C850 601 800 601 750 601C700 601 650 601 600 601C550 601 500 601 450 601C400 601 350 601 300 601C250 601 200 601 150 601C100 601 50 601 25 601L0 601Z" fill="#f2be57"></path></svg>